<?xml version="1.0" encoding="UTF-8" standalone="no"?>
<!DOCTYPE svg PUBLIC "-//W3C//DTD SVG 1.1//EN" "http://www.w3.org/Graphics/SVG/1.1/DTD/svg11.dtd">
<svg width="283.46" height="85.04" viewBox="0.00 0.00 1378.00 413.00" xmlns="http://www.w3.org/2000/svg" xmlns:xlink="http://www.w3.org/1999/xlink">
<g stroke-linecap="round" id="レイヤー_1">
<path d="M339.19,94.08 C339.19,94.33 343.73,133.99 345.43,149.31 C347.25,164.15 351.35,194.94 352.66,207.12 C354.04,223.31 356.64,256.28 357.85,273.06 C359.17,291.21 359.28,315.01 359.28,331.91 C359.28,335.25 359.27,339.84 359.27,341.08" fill="none" stroke="rgb(80, 80, 80)" stroke-width="50.00" stroke-opacity="1.00" stroke-linejoin="round"/>
<path d="M463.58,92.71 C463.58,92.71 463.48,92.71 463.48,92.71 C463.22,103.06 463.27,110.86 463.99,122.53 C467.17,160.54 469.90,214.07 471.93,248.64 C472.87,264.10 474.75,295.84 475.68,312.13 C476.26,319.78 477.62,327.11 477.85,328.39" fill="none" stroke="rgb(80, 80, 80)" stroke-width="50.00" stroke-opacity="1.00" stroke-linejoin="round"/>
<path d="M482.90,92.06 C481.93,94.72 481.88,98.19 483.21,101.80 C484.75,105.89 505.46,142.08 514.31,157.06 C527.54,178.60 534.14,188.23 544.12,205.29 C552.29,219.46 569.02,250.73 576.59,266.11 C596.70,309.82 604.30,328.70 605.38,330.87 C605.83,331.72 606.35,331.55 606.26,330.06 C606.20,329.26 605.29,323.03 605.03,321.21" fill="none" stroke="rgb(80, 80, 80)" stroke-width="50.00" stroke-opacity="1.00" stroke-linejoin="round"/>
<path d="M616.77,93.57 C616.77,93.57 616.77,93.57 616.77,93.57 C616.63,111.94 617.99,187.31 618.55,222.36 C618.55,239.46 618.59,277.56 618.71,280.89 C618.94,287.26 621.31,300.99 622.52,307.23 C623.34,312.87 623.76,326.92 623.84,329.99" fill="none" stroke="rgb(80, 80, 80)" stroke-width="50.00" stroke-opacity="1.00" stroke-linejoin="round"/>
<path d="M734.43,105.50 C733.58,106.17 730.74,108.41 730.10,108.96 C726.51,112.02 716.08,125.30 713.34,129.80 C711.01,133.65 701.63,151.89 699.01,157.89 C695.75,165.42 690.99,181.33 689.49,187.99 C687.95,194.94 686.80,206.97 686.47,216.55 C686.28,224.83 686.07,244.20 686.24,247.10 C686.60,252.87 687.48,256.87 688.86,260.91 C690.05,264.21 697.28,280.79 700.59,287.08 C704.11,293.61 712.32,304.57 717.49,310.28 C720.16,313.21 726.94,319.95 728.64,321.40 C732.06,324.29 745.72,330.24 750.87,331.82 C759.28,334.39 770.29,335.96 777.58,335.66 C780.76,335.52 787.69,334.45 789.91,333.70 C795.19,331.89 811.78,322.31 817.00,317.91 C821.08,314.45 830.73,303.55 833.73,298.17 C838.17,290.10 843.41,278.12 845.30,272.40 C847.24,266.52 850.95,251.87 851.53,245.20 C852.08,238.61 850.93,224.18 848.80,215.36 C846.35,204.85 844.74,196.67 842.85,189.06 C840.81,181.15 835.81,162.20 834.75,159.15 C833.06,154.36 828.68,144.96 822.50,133.81 C820.30,129.97 815.27,121.38 814.72,120.58 C812.51,117.42 808.54,114.90 805.62,113.29 C802.09,111.33 796.00,107.74 793.18,106.06 C790.44,104.50 783.77,102.30 779.89,101.42 C772.33,99.75 755.28,99.23 752.80,99.63 C750.69,99.99 741.83,103.28 737.79,104.79 C733.76,106.25 730.19,106.86 729.16,106.87" fill="none" stroke="rgb(80, 80, 80)" stroke-width="50.00" stroke-opacity="1.00" stroke-linejoin="round"/>
<path d="M918.79,98.00 C918.80,101.48 914.30,137.67 912.16,154.87 C910.40,171.72 907.36,204.95 906.47,219.46 C905.65,234.86 904.23,265.26 903.63,280.27 C903.24,291.28 903.39,302.59 904.31,310.27 C904.70,313.49 908.09,334.30 908.35,335.98 C908.35,335.98 909.62,320.48 909.62,320.48" fill="none" stroke="rgb(80, 80, 80)" stroke-width="50.00" stroke-opacity="1.00" stroke-linejoin="round"/>
<path d="M1050.47,102.94 C1052.05,101.33 1053.73,99.43 1053.61,99.29 C1053.28,99.03 1038.42,110.39 1029.83,117.62 C1018.23,127.85 993.86,150.90 987.22,158.21 C985.02,160.63 976.35,170.00 968.25,177.50 C956.19,188.37 936.58,205.75 923.26,218.98 C917.40,224.95 911.49,232.48 911.45,232.86 C911.42,233.16 911.64,233.78 912.11,234.70" fill="none" stroke="rgb(80, 80, 80)" stroke-width="50.00" stroke-opacity="1.00" stroke-linejoin="round"/>
<path d="M950.60,195.44 C951.44,197.94 973.41,234.02 982.03,248.44 C985.89,255.07 993.63,268.53 997.50,275.37 C1000.82,281.53 1007.26,295.74 1007.79,296.84 C1009.35,300.15 1020.76,319.22 1022.81,322.27 C1024.50,324.78 1037.22,341.14 1038.87,343.95 C1040.05,345.99 1041.84,349.85 1042.36,350.69 C1042.47,350.88 1042.58,350.89 1042.69,350.72" fill="none" stroke="rgb(80, 80, 80)" stroke-width="50.00" stroke-opacity="1.00" stroke-linejoin="round"/>
<path d="M1159.99,106.35 C1154.17,111.16 1145.36,120.74 1141.25,126.61 C1136.23,133.82 1131.08,143.79 1128.19,151.04 C1124.60,160.15 1121.69,169.34 1118.97,179.82 C1117.14,187.49 1113.26,204.02 1113.11,206.52 C1112.93,209.55 1112.45,228.62 1112.27,237.32 C1112.33,245.43 1112.62,263.37 1113.08,268.65 C1113.76,276.26 1117.29,292.16 1119.22,297.40 C1121.41,303.32 1128.85,315.65 1133.17,320.64 C1138.78,327.07 1148.58,335.22 1155.97,339.71 C1159.23,341.66 1164.33,343.58 1168.12,344.28 C1171.54,344.88 1179.14,345.57 1182.70,345.44 C1190.43,345.09 1203.77,341.98 1209.17,339.39 C1212.14,337.95 1218.32,334.37 1220.50,332.80 C1225.21,329.33 1232.82,320.92 1240.07,312.35 C1245.68,305.54 1256.41,292.29 1260.98,286.37 C1267.71,277.26 1276.88,262.72 1278.06,260.62 C1281.44,254.60 1286.64,241.62 1288.26,236.49 C1289.49,232.56 1295.12,211.47 1296.17,206.72 C1298.16,197.25 1299.56,184.88 1299.86,175.75 C1299.98,171.72 1299.38,166.81 1297.96,163.13 C1295.73,157.54 1289.39,144.85 1286.38,140.02 C1282.39,133.65 1272.53,122.17 1266.67,117.60 C1262.07,114.03 1250.03,106.78 1243.81,103.77 C1238.18,101.08 1225.71,97.10 1218.14,96.06 C1211.54,95.18 1198.08,95.44 1190.30,96.90 C1182.50,98.41 1170.23,102.48 1160.58,106.88 C1156.99,108.52 1152.30,111.11 1151.02,111.90" fill="none" stroke="rgb(80, 80, 80)" stroke-width="50.00" stroke-opacity="1.00" stroke-linejoin="round"/>
<path d="M129.56,353.74 C128.32,350.30 127.91,339.94 127.85,329.35 C127.86,312.79 129.55,285.46 131.57,265.62 C133.27,247.58 134.55,222.61 135.21,207.02 C135.69,190.28 136.21,158.91 136.27,144.27 C136.25,115.02 132.89,79.93 131.08,69.61 C131.08,69.61 129.59,79.45 129.59,79.45" fill="none" stroke="rgb(80, 80, 80)" stroke-width="50.00" stroke-opacity="1.00" stroke-linejoin="round"/>
<path d="M141.86,241.12 C141.63,240.94 141.53,240.77 141.56,240.59 C142.07,237.99 153.18,222.63 155.97,219.22 C159.37,215.09 172.19,201.14 177.74,195.23 C183.45,189.39 195.66,177.48 200.40,173.48 C214.51,161.79 229.41,147.57 243.70,135.09 C250.79,128.65 258.16,120.81 265.96,111.74 C268.89,108.43 272.92,104.70 275.32,103.75 C277.28,102.99 284.57,98.74 285.26,98.37 C287.94,96.95 289.38,96.60 289.65,97.19" fill="none" stroke="rgb(80, 80, 80)" stroke-width="50.00" stroke-opacity="1.00" stroke-linejoin="round"/>
<path d="M175.68,207.47 C179.94,213.81 199.76,240.84 209.24,253.77 C217.84,265.84 235.40,292.45 244.17,306.06 C249.93,314.63 255.27,321.76 260.97,327.65 C263.08,329.82 267.58,334.45 269.95,336.91 C275.55,342.83 278.58,346.71 279.11,347.38" fill="none" stroke="rgb(80, 80, 80)" stroke-width="50.00" stroke-opacity="1.00" stroke-linejoin="round"/>
</g>
<g stroke-linecap="round" transform="translate(-96.00, -10.00)" id="レイヤー_2">
<path d="M421.75,91.44 C421.75,91.44 422.74,91.92 422.74,91.92 C423.77,110.42 429.49,182.02 431.96,213.82 C432.18,217.06 436.70,302.84 438.73,334.72 C439.03,342.66 439.42,353.67 439.49,356.74 C439.48,355.74 439.46,353.37 439.43,351.99 C439.39,350.70 439.32,348.50 439.28,347.61" fill="none" stroke="rgb(0, 0, 0)" stroke-width="17.00" stroke-opacity="1.00" stroke-linejoin="round"/>
<path d="M544.91,93.30 C544.88,125.86 545.00,204.49 545.74,220.65 C547.84,251.01 553.14,328.63 553.19,343.91 C553.17,347.18 553.15,351.51 553.15,352.56 C553.15,352.56 554.04,341.78 554.04,341.78" fill="none" stroke="rgb(0, 0, 0)" stroke-width="17.00" stroke-opacity="1.00" stroke-linejoin="round"/>
<path d="M552.20,97.79 C566.60,122.58 597.63,176.62 614.25,205.86 C633.23,239.95 665.28,294.87 672.43,306.17 C681.74,320.36 695.87,341.73 700.69,348.93 C700.69,348.93 701.94,349.04 701.94,349.04" fill="none" stroke="rgb(0, 0, 0)" stroke-width="17.00" stroke-opacity="1.00" stroke-linejoin="round"/>
<path d="M700.88,87.95 C700.88,87.95 700.96,87.87 700.96,87.87 C702.66,105.41 702.32,118.58 704.13,143.02 C705.78,167.00 707.53,218.75 708.13,234.32 C708.66,243.83 709.55,250.00 709.89,258.75 C710.71,289.91 710.97,338.77 710.61,339.36" fill="none" stroke="rgb(0, 0, 0)" stroke-width="17.00" stroke-opacity="1.00" stroke-linejoin="round"/>
<path d="M819.18,102.44 C816.70,102.84 815.10,103.41 813.50,104.73 C808.85,108.58 798.75,119.60 793.42,126.49 C789.15,132.02 778.74,147.76 775.91,152.83 C772.16,159.56 766.50,173.01 765.05,179.97 C763.52,187.45 762.88,199.57 762.86,211.31 C763.08,218.94 763.53,231.66 764.19,240.58 C764.84,247.96 767.55,262.13 769.76,269.56 C771.97,276.74 777.47,291.70 780.42,298.55 C783.58,305.71 790.35,317.80 794.47,322.78 C796.84,325.62 801.01,329.67 803.78,331.82 C808.84,335.71 821.23,341.31 828.52,343.24 C835.73,345.12 849.59,346.44 855.95,345.95 C859.72,345.63 865.75,344.25 869.60,342.80 C875.95,340.38 887.17,333.00 892.75,328.00 C899.78,321.67 907.31,313.51 912.33,306.28 C915.42,301.82 924.29,282.84 926.34,277.09 C928.68,270.45 931.82,255.31 932.42,248.28 C933.05,240.63 933.19,226.27 933.21,219.38 C933.13,211.86 931.98,201.09 929.88,192.17 C927.60,183.17 923.34,170.01 920.04,163.04 C916.93,156.74 909.03,141.18 907.58,138.94 C905.73,136.14 900.18,129.60 898.49,127.97 C896.25,125.83 887.76,118.90 885.82,117.58 C882.42,115.31 876.78,113.54 872.58,113.12 C868.15,112.71 850.37,112.11 843.69,111.17 C834.53,109.80 825.45,109.43 822.23,109.50 C821.96,109.51 821.67,109.53 821.37,109.58" fill="none" stroke="rgb(0, 0, 0)" stroke-width="17.00" stroke-opacity="1.00" stroke-linejoin="round"/>
<path d="M996.89,109.03 C996.68,109.07 992.94,148.36 991.32,164.24 C989.08,184.04 987.56,204.68 986.85,219.37 C986.35,236.90 986.16,268.60 986.16,285.27 C986.68,327.04 989.47,346.50 991.09,356.30 C991.09,356.30 996.64,330.74 996.64,330.74" fill="none" stroke="rgb(0, 0, 0)" stroke-width="17.00" stroke-opacity="1.00" stroke-linejoin="round"/>
<path d="M1142.15,103.79 C1138.06,106.53 1108.95,130.83 1097.02,140.88 C1085.46,151.00 1062.27,171.48 1050.64,181.84 C1037.72,192.98 1024.26,205.76 1008.56,222.82 C1002.84,229.16 995.35,237.45 993.59,239.41 C993.59,239.41 998.47,233.39 998.47,233.39" fill="none" stroke="rgb(0, 0, 0)" stroke-width="17.00" stroke-opacity="1.00" stroke-linejoin="round"/>
<path d="M1026.53,213.48 C1027.48,215.96 1077.10,270.52 1084.49,279.14 C1093.34,289.87 1110.55,316.16 1118.70,328.60 C1127.00,340.73 1148.77,371.80 1149.61,372.78 C1149.14,371.27 1148.26,368.75 1147.63,367.36 C1147.01,365.96 1144.87,361.93 1144.06,360.44" fill="none" stroke="rgb(0, 0, 0)" stroke-width="17.00" stroke-opacity="1.00" stroke-linejoin="round"/>
<path d="M1241.97,111.98 C1241.79,111.94 1241.54,111.97 1241.24,112.07 C1238.29,113.13 1233.22,117.43 1231.22,119.98 C1227.38,124.98 1220.94,135.79 1218.08,142.17 C1215.21,148.64 1209.72,164.80 1208.34,169.65 C1207.03,174.25 1203.23,191.27 1201.86,198.38 C1200.52,206.51 1198.46,222.04 1197.96,228.98 C1197.67,235.48 1197.27,249.25 1197.27,256.27 C1197.38,264.25 1198.87,278.13 1200.98,286.99 C1202.75,294.36 1206.96,307.16 1210.08,313.95 C1213.23,320.76 1221.30,333.57 1225.95,338.44 C1230.93,343.59 1243.35,352.25 1250.20,355.35 C1257.33,358.54 1270.66,362.50 1278.45,363.09 C1281.33,363.30 1289.03,363.46 1292.02,362.99 C1294.48,362.59 1301.44,359.97 1305.01,358.18 C1310.39,355.45 1320.90,347.07 1327.32,340.60 C1332.73,335.12 1338.78,327.31 1343.58,319.60 C1348.03,312.40 1353.21,300.95 1356.22,292.63 C1358.62,285.82 1362.75,271.86 1364.74,264.91 C1367.27,255.60 1369.04,246.11 1369.68,235.68 C1370.04,227.84 1370.51,208.61 1370.34,204.26 C1370.13,198.73 1366.44,181.91 1364.84,177.82 C1361.67,169.84 1344.12,142.38 1340.90,138.31 C1337.94,134.61 1333.43,130.28 1330.36,128.01 C1325.48,124.46 1296.64,108.92 1296.18,108.77 C1292.65,107.63 1274.41,105.64 1266.47,103.47 C1262.69,102.43 1254.48,99.53 1251.00,98.28 C1250.26,98.02 1249.52,97.75 1248.78,97.49" fill="none" stroke="rgb(0, 0, 0)" stroke-width="17.00" stroke-opacity="1.00" stroke-linejoin="round"/>
<path d="M206.69,87.21 C207.84,117.85 209.67,178.30 210.36,208.11 C210.85,242.42 211.90,308.86 212.46,340.98 C213.05,359.80 215.84,377.88 215.98,378.38 C216.51,380.31 217.69,383.31 218.44,384.85" fill="none" stroke="rgb(0, 0, 0)" stroke-width="17.00" stroke-opacity="1.00" stroke-linejoin="round"/>
<path d="M215.11,235.31 C215.11,235.31 214.07,236.25 214.07,236.25 C219.50,230.35 245.64,206.55 257.22,196.17 C268.16,186.85 291.17,167.74 303.24,157.94 C314.98,148.87 341.66,129.98 355.10,120.72 C370.27,110.68 382.69,104.49 383.89,104.44" fill="none" stroke="rgb(0, 0, 0)" stroke-width="17.00" stroke-opacity="1.00" stroke-linejoin="round"/>
<path d="M254.47,214.61 C254.47,214.61 253.77,214.12 253.77,214.12 C260.03,219.61 266.19,226.48 271.65,233.64 C277.96,242.21 291.25,261.78 306.23,281.41 C316.73,294.89 336.73,320.24 347.45,333.25 C356.79,344.09 372.03,359.40 387.19,372.44 C387.19,372.44 382.10,366.63 382.10,366.63" fill="none" stroke="rgb(0, 0, 0)" stroke-width="17.00" stroke-opacity="1.00" stroke-linejoin="round"/>
</g>
</svg>
