<?xml version="1.0" encoding="UTF-8" standalone="no"?>
<!DOCTYPE svg PUBLIC "-//W3C//DTD SVG 1.1//EN" "http://www.w3.org/Graphics/SVG/1.1/DTD/svg11.dtd">
<svg width="141.73" height="141.73" viewBox="0.00 0.00 689.00 689.00" xmlns="http://www.w3.org/2000/svg" xmlns:xlink="http://www.w3.org/1999/xlink">
<g stroke-linecap="round" id="レイヤー_2">
<path d="M259.19,192.47 C257.80,192.52 256.95,192.79 255.40,193.80 C251.22,196.56 241.22,207.90 233.73,217.05 C228.67,223.31 222.57,232.46 217.89,239.84 C213.60,246.84 206.99,259.60 204.31,267.08 C201.73,274.33 199.51,285.41 198.53,292.42 C197.76,298.36 197.28,313.34 197.24,321.48 C197.27,334.84 197.73,339.79 199.96,349.44 C201.32,355.25 206.33,367.87 209.18,373.39 C211.92,378.64 220.61,391.41 224.99,396.73 C229.61,402.29 238.16,409.50 244.76,413.94 C252.36,419.04 263.24,424.92 271.25,428.22 C274.68,429.62 295.01,436.71 298.53,437.59 C304.72,439.11 319.66,441.07 325.66,441.28 C329.87,441.42 348.50,441.32 356.37,441.21 C365.02,440.99 374.72,439.36 384.93,436.98 C396.85,434.28 403.22,432.31 411.00,428.76 C418.38,425.38 429.53,418.67 437.84,412.41 C443.25,408.32 453.11,400.49 457.39,395.12 C461.16,390.34 469.12,376.43 472.30,369.28 C475.23,362.51 481.27,348.16 482.71,343.99 C484.53,338.61 487.20,322.63 488.36,314.18 C489.93,302.00 490.65,295.06 490.51,288.93 C490.38,284.28 489.66,279.49 488.51,275.55 C486.94,270.31 481.96,258.68 478.58,252.94 C471.19,240.61 457.70,221.86 454.65,218.74 C444.91,208.85 441.38,205.81 433.16,200.61 C429.10,198.06 414.18,189.79 411.06,188.43 C403.87,185.34 391.73,180.17 385.45,178.67 C375.00,176.20 364.80,174.84 358.17,174.34 C351.43,173.83 310.11,173.27 303.08,173.34 C301.01,173.38 297.97,173.97 292.47,175.19 C287.00,176.49 280.25,179.47 279.50,179.81 C278.47,180.12 264.34,187.19 259.00,191.15 C258.01,191.89 257.33,192.38 256.97,192.61 C256.64,192.83 255.97,193.22 254.96,193.80" fill="none" stroke="rgb(0, 0, 0)" stroke-width="14.23" stroke-opacity="1.00" stroke-linejoin="round"/>
<path d="M192.36,341.61 C187.27,340.11 183.05,338.44 180.37,336.26 C179.06,335.17 165.16,322.17 159.50,317.84 C151.40,311.79 141.40,302.65 136.96,296.93 C132.16,290.71 125.19,278.84 123.00,274.13 C120.77,269.29 115.52,250.83 114.42,246.29 C112.41,237.91 110.48,225.46 109.14,214.09 C108.30,206.69 108.12,194.82 108.49,188.36 C108.83,182.77 111.71,167.86 113.53,161.37 C115.27,155.26 120.74,142.33 124.39,135.87 C126.95,131.36 134.17,121.16 140.10,113.66 C144.40,108.39 150.80,102.59 160.18,94.88 C166.43,89.78 182.13,76.86 184.16,75.31 C190.11,70.92 202.17,62.14 208.27,57.75 C214.94,53.13 222.25,49.36 231.64,45.00 C241.79,40.35 272.03,28.46 280.44,26.81 C285.08,25.96 302.90,21.60 310.43,19.73 C315.56,18.56 333.13,17.63 341.80,17.19 C352.01,16.72 357.15,16.86 366.87,17.59 C374.26,18.26 392.16,20.13 395.76,20.71 C402.55,21.81 421.40,26.74 424.42,27.72 C428.41,29.02 465.81,43.05 475.82,49.45 C479.21,51.64 493.74,62.06 498.03,66.27 C499.31,67.54 514.70,84.07 516.90,86.58 C521.65,92.02 530.49,105.43 534.86,112.41 C540.87,122.30 545.42,130.69 548.59,138.05 C550.95,143.60 553.93,155.11 556.24,165.87 C558.38,177.15 559.82,187.95 560.15,196.02 C560.35,202.79 560.61,215.16 560.02,221.67 C559.72,224.83 557.27,243.39 556.81,246.10 C555.91,251.32 553.46,260.04 550.11,268.89 C548.47,272.96 539.38,286.59 536.84,290.07 C532.82,295.54 520.29,307.64 517.27,310.72 C512.37,315.94 500.99,327.93 497.08,331.28 C493.77,334.07 492.21,335.73 491.26,335.52 C491.16,335.49 490.44,335.30 489.09,334.94" fill="none" stroke="rgb(0, 0, 0)" stroke-width="14.23" stroke-opacity="1.00" stroke-linejoin="round"/>
<path d="M256.55,300.97 C255.68,297.94 255.07,293.71 255.52,291.62 C256.01,289.50 258.74,283.76 260.77,280.77 C262.83,277.78 267.85,272.18 270.48,269.82 C272.98,267.60 277.78,264.39 279.96,263.42 C282.04,262.52 286.25,261.78 288.54,261.76 C291.01,261.77 295.76,262.77 298.21,263.99 C300.70,265.26 305.13,268.79 306.99,271.20 C309.03,273.92 311.11,277.98 312.31,281.73 C314.01,287.21 316.27,295.16 316.30,295.21 C316.44,295.48 316.76,295.85 317.25,296.30" fill="none" stroke="rgb(0, 0, 0)" stroke-width="14.23" stroke-opacity="1.00" stroke-linejoin="round"/>
<path d="M363.99,298.59 C363.43,293.25 363.15,288.41 363.78,285.10 C364.38,282.11 366.99,276.07 369.36,272.02 C371.28,268.78 374.21,265.14 376.82,262.61 C379.16,260.38 383.29,257.41 385.89,255.92 C387.17,255.22 389.81,254.34 391.64,254.05 C393.54,253.77 396.20,254.31 398.15,255.19 C400.41,256.30 409.72,268.87 412.37,274.41 C414.48,278.88 417.47,291.15 418.34,294.97 C418.45,295.41 418.73,296.52 419.19,298.30" fill="none" stroke="rgb(0, 0, 0)" stroke-width="14.23" stroke-opacity="1.00" stroke-linejoin="round"/>
<path d="M273.36,355.79 C281.52,352.91 296.41,346.51 297.63,346.08 C302.19,344.48 306.33,344.02 306.36,344.13 C306.39,344.31 310.04,356.35 311.11,359.17 C312.79,363.48 316.41,369.55 318.47,372.32 C319.94,374.28 324.95,380.32 327.56,382.32 C328.75,383.21 332.11,384.92 333.71,385.51 C337.10,386.68 345.40,386.75 347.72,386.23 C349.74,385.73 353.13,384.33 355.47,382.70 C358.93,380.24 362.57,376.45 364.83,372.59 C366.69,369.34 368.42,363.33 369.48,357.75 C369.95,355.32 370.58,351.24 370.81,350.79 C371.89,348.88 389.37,350.06 396.54,350.59 C405.30,351.21 416.41,350.96 424.53,349.89 C425.03,349.82 426.11,349.66 427.76,349.41" fill="none" stroke="rgb(0, 0, 0)" stroke-width="14.23" stroke-opacity="1.00" stroke-linejoin="round"/>
<path d="M248.40,417.75 C246.36,418.02 241.69,418.41 238.70,417.72 C232.60,416.28 217.32,414.54 210.55,414.27 C206.63,414.12 189.39,414.24 182.36,414.37 C171.66,414.88 158.52,416.18 152.08,417.01 C144.94,418.02 127.16,421.07 122.30,422.19 C105.81,426.25 77.31,435.73 67.06,440.67 C64.36,441.98 59.64,445.22 57.10,448.06 C55.05,450.41 51.83,456.59 51.56,460.41 C51.37,463.78 52.11,472.12 52.93,475.56 C53.78,478.97 56.19,482.50 59.48,484.94 C64.37,488.47 76.01,493.33 80.55,493.98 C83.82,494.43 101.24,495.98 109.03,496.41 C121.17,496.73 153.74,495.86 168.90,495.55 C199.76,494.71 242.32,493.87 254.01,493.89 C254.13,497.12 252.01,513.19 251.00,520.58 C249.89,528.58 249.29,546.60 249.35,551.42 C249.48,559.14 251.47,573.88 252.13,579.55 C252.50,582.26 255.21,593.95 258.20,603.39 C259.52,607.52 265.84,621.79 267.22,623.29 C268.17,624.27 275.26,627.59 278.05,627.86 C280.95,628.11 287.86,628.25 290.43,628.10 C293.78,627.87 300.53,625.81 303.45,624.32 C306.12,622.92 311.38,618.81 314.08,615.97 C317.08,612.79 320.81,608.25 321.85,606.38 C322.99,604.29 324.90,599.93 325.55,596.82 C327.14,588.93 328.01,574.43 327.75,568.71 C327.60,565.74 326.38,559.56 325.71,557.32 C324.52,553.50 321.71,548.78 319.31,546.56 C316.62,544.15 310.84,540.79 307.84,539.95 C306.09,539.48 285.09,537.55 279.43,537.59 C277.83,537.61 273.20,537.55 269.51,538.66 C265.68,539.85 257.49,542.44 256.65,542.85 C255.56,543.41 249.66,549.62 248.18,552.07 C247.49,553.25 246.77,555.17 246.45,556.56 C246.38,556.86 246.33,557.23 246.29,557.65" fill="none" stroke="rgb(0, 0, 0)" stroke-width="14.23" stroke-opacity="1.00" stroke-linejoin="round"/>
<path d="M337.95,583.82 C337.94,586.55 339.38,592.77 340.68,596.30 C342.39,600.85 344.96,605.62 347.47,609.31 C355.01,620.30 359.15,626.71 364.51,631.61 C368.57,635.21 372.49,638.52 374.84,640.19 C378.54,642.77 383.82,645.24 387.47,645.79 C391.02,646.29 397.39,645.74 400.35,644.89 C402.93,644.12 407.42,641.47 409.86,639.66 C412.19,637.91 416.28,634.15 418.00,631.77 C421.00,627.52 425.75,615.45 427.21,608.51 C428.40,602.79 430.58,587.25 430.98,580.30 C431.23,575.93 434.33,551.07 434.59,548.61 C435.88,536.17 436.64,515.02 436.41,503.61 C443.64,503.54 462.87,503.16 467.73,502.78 C470.28,502.58 485.52,500.82 494.92,500.37 C501.10,500.27 511.15,500.01 521.33,499.11 C537.90,497.42 573.13,491.59 578.47,490.27 C594.44,486.23 635.34,475.97 639.10,474.37 C642.98,472.69 646.85,470.29 649.32,467.87 C651.90,465.26 654.27,460.85 654.78,457.19 C655.00,455.48 654.93,451.53 654.61,450.10 C653.83,446.94 649.68,442.29 646.03,439.74 C643.37,437.92 637.90,434.92 633.52,433.50 C628.26,431.82 611.72,428.03 605.08,426.57 C602.75,426.01 588.95,422.58 579.29,421.18 C560.63,418.15 547.26,414.65 524.23,411.35 C514.56,410.17 503.76,409.57 493.11,409.48 C485.45,409.51 468.77,410.38 463.29,410.89 C455.54,411.66 438.05,416.57 437.53,416.69 C437.49,417.37 437.45,418.06 437.41,418.75 C437.39,419.05 437.37,419.35 437.35,419.65" fill="none" stroke="rgb(0, 0, 0)" stroke-width="15.81" stroke-opacity="1.00" stroke-linejoin="round"/>
</g>
</svg>
